<svg width="100" height="14" viewBox="0 0 100 14" fill="none" xmlns="http://www.w3.org/2000/svg">
<path d="M7 0L8.5716 4.83688H13.6574L9.5429 7.82624L11.1145 12.6631L7 9.67376L2.8855 12.6631L4.4571 7.82624L0.342604 4.83688H5.4284L7 0Z" fill="#FFCE1F"/>
<path d="M28.5 0L29.9593 4.83688H34.6819L30.8613 7.82624L32.3206 12.6631L28.5 9.67376L24.6794 12.6631L26.1387 7.82624L22.3181 4.83688H27.0407L28.5 0Z" fill="#FFCE1F"/>
<path d="M50 0L51.5716 4.83688H56.6574L52.5429 7.82624L54.1145 12.6631L50 9.67376L45.8855 12.6631L47.4571 7.82624L43.3426 4.83688H48.4284L50 0Z" fill="#FFCE1F"/>
<path d="M71.5 0L72.9593 4.83688H77.6819L73.8613 7.82624L75.3206 12.6631L71.5 9.67376L67.6794 12.6631L69.1387 7.82624L65.3181 4.83688H70.0407L71.5 0Z" fill="#FFCE1F"/>
<path d="M93 0L94.5716 4.83688H99.6574L95.5429 7.82624L97.1145 12.6631L93 9.67376L88.8855 12.6631L90.4571 7.82624L86.3426 4.83688H91.4284L93 0Z" fill="url(#paint0_linear_2450_2941)"/>
<defs>
<linearGradient id="paint0_linear_2450_2941" x1="87.5556" y1="7.77778" x2="104.667" y2="7.77778" gradientUnits="userSpaceOnUse">
<stop offset="0.288017" stop-color="#FFCE1F"/>
<stop offset="0.399978" stop-color="#A4A4A4" stop-opacity="0.566495"/>
<stop offset="1" stop-color="#D9D9D9" stop-opacity="0"/>
</linearGradient>
</defs>
</svg>
