<svg width="99" height="14" viewBox="0 0 99 14" fill="none" xmlns="http://www.w3.org/2000/svg">
<path d="M7 0L8.5716 4.83688H13.6574L9.5429 7.82624L11.1145 12.6631L7 9.67376L2.8855 12.6631L4.4571 7.82624L0.342604 4.83688H5.4284L7 0Z" fill="#FFCE1F"/>
<path d="M28.5 0L29.9593 4.83688H34.6819L30.8613 7.82624L32.3206 12.6631L28.5 9.67376L24.6794 12.6631L26.1387 7.82624L22.3181 4.83688H27.0407L28.5 0Z" fill="#FFCE1F"/>
<path d="M50 0L51.5716 4.83688H56.6574L52.5429 7.82624L54.1145 12.6631L50 9.67376L45.8855 12.6631L47.4571 7.82624L43.3426 4.83688H48.4284L50 0Z" fill="#FFCE1F"/>
<path d="M71 0L72.5716 4.83688H77.6574L73.5429 7.82624L75.1145 12.6631L71 9.67376L66.8855 12.6631L68.4571 7.82624L64.3426 4.83688H69.4284L71 0Z" fill="#FFCE1F"/>
<path d="M92.5 0L93.9593 4.83688H98.6819L94.8613 7.82624L96.3206 12.6631L92.5 9.67376L88.6794 12.6631L90.1387 7.82624L86.3181 4.83688H91.0407L92.5 0Z" fill="#FFCE1F"/>
</svg>
