<svg width="141" height="21" viewBox="0 0 141 21" fill="none" xmlns="http://www.w3.org/2000/svg">
<path d="M8.633 7.385C8.633 7.385 7.467 7.269 7.467 8.308V12.923H15.167V14.308C15.167 14.308 15.19 15 14.467 15H7.467V21H15.867C15.867 21 20.953 20.215 21 15V7.385H8.633ZM20.766 0H5.6C0.116 1.292 0 5.792 0 5.792V21H5.834V7.154C5.834 5.977 7 5.77 7 5.77H20.767L20.766 0ZM40.788 16.648L39.883 17.236C39.135 17.699 38.422 18.056 37.761 18.341C36.804 18.733 35.951 18.929 35.186 18.929C32.559 18.929 30.384 18.127 28.626 16.505C26.868 14.883 26 12.852 26 10.393C26 8.023 26.783 5.973 28.366 4.226C29.949 2.479 31.863 1.624 34.125 1.624C35.065 1.624 36.073 1.784 37.117 2.124C38.474 2.551 39.57 3.193 40.44 4.03L38.926 5.705C38.283 5.082 37.448 4.618 36.473 4.333C35.743 4.119 34.943 4.013 34.055 4.013C32.472 4.013 31.132 4.653 30.071 5.919C29.01 7.202 28.471 8.717 28.471 10.499C28.471 12.264 29.079 13.707 30.297 14.866C31.515 16.025 33.063 16.612 34.942 16.612C35.725 16.612 36.526 16.362 37.343 15.882L38.387 15.097V11.444H33.307L34.037 9.163H40.788V16.648ZM56.133 12.192C56.133 13.956 55.507 15.489 54.254 16.772C53.001 18.055 51.453 18.715 49.609 18.715C47.904 18.715 46.408 18.073 45.12 16.808C43.832 15.543 43.206 14.01 43.206 12.21C43.206 10.428 43.816 8.895 45.033 7.576C45.5927 6.94608 46.2821 6.44475 47.0539 6.10642C47.8256 5.7681 48.6615 5.60079 49.504 5.616C51.453 5.616 53.036 6.24 54.271 7.505C55.507 8.735 56.133 10.303 56.133 12.192ZM53.749 12.228C53.749 11.034 53.349 10.018 52.549 9.198C51.749 8.36 50.757 7.95 49.574 7.95C48.461 7.95 47.521 8.378 46.738 9.234C45.955 10.09 45.572 11.069 45.572 12.174C45.572 13.333 45.972 14.313 46.755 15.133C47.1293 15.5365 47.5848 15.8563 48.0915 16.0712C48.5982 16.2861 49.1447 16.3914 49.695 16.38C50.792 16.38 51.731 15.97 52.532 15.15C52.9232 14.7715 53.2329 14.3171 53.4424 13.8146C53.6518 13.3122 53.7555 12.7723 53.749 12.228ZM71.269 12.192C71.269 13.956 70.643 15.489 69.39 16.772C68.137 18.055 66.589 18.715 64.745 18.715C63.04 18.715 61.544 18.073 60.256 16.808C59.6359 16.2159 59.1456 15.5015 58.8162 14.71C58.4867 13.9185 58.3252 13.0672 58.342 12.21C58.342 10.428 58.952 8.895 60.169 7.576C60.7287 6.94608 61.4181 6.44475 62.1899 6.10642C62.9616 5.7681 63.7975 5.60079 64.64 5.616C66.589 5.616 68.172 6.24 69.407 7.505C70.643 8.735 71.269 10.303 71.269 12.192ZM68.885 12.228C68.885 11.034 68.485 10.018 67.685 9.198C66.885 8.36 65.893 7.95 64.71 7.95C63.597 7.95 62.657 8.378 61.874 9.234C61.091 10.09 60.708 11.069 60.708 12.174C60.708 13.333 61.108 14.313 61.892 15.133C62.676 15.953 63.649 16.38 64.832 16.38C65.928 16.38 66.867 15.97 67.668 15.15C68.0592 14.7715 68.3689 14.3171 68.5784 13.8146C68.7878 13.3122 68.8915 12.7723 68.885 12.228ZM85.275 18.358L83.083 18.697V16.576L82.613 17.11C82.199 17.498 81.73 17.822 81.221 18.073C80.474 18.418 79.661 18.594 78.838 18.59C78.02 18.6038 77.2086 18.4422 76.4583 18.1162C75.708 17.7902 75.0361 17.3073 74.488 16.7C73.305 15.434 72.714 13.938 72.714 12.192C72.714 10.392 73.305 8.842 74.471 7.558C75.637 6.274 77.063 5.633 78.768 5.633C79.743 5.633 80.595 5.793 81.308 6.114C81.7957 6.33372 82.2382 6.64231 82.613 7.024L82.979 7.522V1.962L85.309 1.623L85.275 18.358ZM83.222 12.352C83.222 11.105 82.804 10.053 81.952 9.198C81.1 8.324 80.142 7.897 79.047 7.897C77.829 7.897 76.855 8.307 76.107 9.127C75.41 9.91 75.045 10.873 75.045 11.996C75.045 13.261 75.41 14.312 76.141 15.132C76.872 15.952 77.794 16.362 78.925 16.362C80.038 16.362 81.013 15.988 81.883 15.222C82.77 14.437 83.222 13.475 83.222 12.352ZM97.575 4.28H91.051V8.717H96.113V10.998H91.051V18.341L88.511 18.715V1.98H97.07L97.575 4.28ZM102.812 2.978L101.246 4.956L99.75 2.978L101.333 1.018L102.812 2.978ZM102.342 18.358L100.011 18.679V6.293L102.342 5.937V18.358ZM112.868 5.812L111.772 8.342C111.628 8.32 111.483 8.308 111.337 8.307C111.111 8.307 110.885 8.325 110.658 8.36C110.431 8.395 110.188 8.485 109.928 8.61C109.441 8.824 109.023 9.287 108.658 9.982C108.254 10.7708 108.045 11.6448 108.048 12.531V18.341L105.718 18.715V6.293L107.875 5.901V8.485L108.727 7.131C109.127 6.667 109.597 6.329 110.119 6.132C110.397 6.026 110.902 5.936 111.667 5.865L112.868 5.812ZM130.23 18.358L127.899 18.697V10.196C127.899 9.411 127.725 8.841 127.377 8.485C127.029 8.129 126.507 7.95 125.828 7.95C125.011 7.95 124.384 8.289 123.967 8.966C123.688 9.429 123.532 9.928 123.532 10.427V18.34L121.201 18.768V10.249C121.201 9.501 121.027 8.93 120.696 8.539C120.348 8.146 119.896 7.95 119.304 7.95H119.078C118.26 7.95 117.668 8.289 117.303 8.984C117.025 9.501 116.886 10.16 116.886 10.962V18.34L114.468 18.768V6.293L116.642 5.919V7.505C116.886 7.13 117.129 6.827 117.356 6.614C117.937 6.04763 118.718 5.73355 119.53 5.74C120.452 5.74 121.13 5.883 121.6 6.186C122 6.436 122.383 6.934 122.766 7.647C123.566 6.382 124.697 5.74 126.194 5.74C127.62 5.74 128.682 6.186 129.377 7.095C129.952 7.843 130.23 8.948 130.23 10.392V18.358ZM140.88 14.598C140.88 15.738 140.48 16.683 139.68 17.414C138.88 18.162 137.87 18.519 136.652 18.519C135.78 18.5306 134.921 18.309 134.164 17.877C133.416 17.45 132.86 16.968 132.494 16.398L134.13 14.937C134.251 15.115 134.356 15.257 134.46 15.364C135.07 15.988 135.8 16.309 136.652 16.309C137.244 16.309 137.714 16.149 138.044 15.846C138.392 15.543 138.549 15.115 138.549 14.562C138.549 13.939 138.149 13.511 137.349 13.279L134.791 12.477C134.06 12.103 133.538 11.711 133.207 11.265C132.842 10.748 132.651 10.071 132.651 9.198C132.642 8.69322 132.743 8.19252 132.947 7.73085C133.152 7.26919 133.454 6.85766 133.834 6.525C134.617 5.812 135.556 5.473 136.634 5.473C137.453 5.473 138.218 5.651 138.914 6.026C139.61 6.401 140.114 6.792 140.41 7.256L139.018 8.77C138.809 8.56073 138.582 8.37002 138.34 8.2C137.783 7.808 137.244 7.612 136.74 7.612C136.252 7.612 135.852 7.719 135.539 7.932C135.173 8.2 134.982 8.592 134.982 9.109C134.982 9.608 135.156 9.982 135.522 10.214C135.835 10.41 136.496 10.624 137.54 10.855C138.583 11.105 139.384 11.533 139.958 12.139C140.602 12.78 140.88 13.582 140.88 14.598Z" fill="#2043D8"/>
</svg>
