<svg xmlns="http://www.w3.org/2000/svg" enable-background="new 0 0 64 64" viewBox="0 0 64 64" id="openai"><path fill="#f82f45" d="M55.11 14.04c1.09 1.89 1.61 3.95 1.61 5.99 0 2.34-.69 4.65-1.99 6.62 0-.01-.01-.01-.01-.01L40 18.14l-7.99 4.6-8.02 4.62L24 18.14l14.72-8.5c.01 0 .01-.01.02-.01C44.48 6.33 51.8 8.31 55.11 14.04zM31.99 41.26L24 45.86l-14.72-8.5c0 0-.01 0-.01-.01-5.73-3.32-7.7-10.65-4.38-16.39 2.22-3.85 6.25-6 10.4-6 .24 0 .47.01.71.02 0 .01 0 .01 0 .02v17l7.97 4.62L31.99 41.26z"></path><path fill="#d22435" d="M38.74,9.63c-0.01,0-0.01,0.01-0.02,0.01L24,18.14l-0.01,9.22l-0.02,9.26L16,32V15
	c0-0.01,0-0.01,0-0.02C16.01,8.36,21.38,3,28,3c3.32,0,6.32,1.34,8.49,3.51C37.4,7.42,38.16,8.47,38.74,9.63z"></path><path fill="#f82f45" d="M48,49c0,0.01,0,0.01,0,0.02C47.99,55.64,42.62,61,36,61c-3.32,0-6.32-1.34-8.49-3.51
	c-0.91-0.91-1.67-1.96-2.25-3.12c0.01,0,0.01-0.01,0.02-0.01L40,45.86l0.01-9.22l0.02-9.26L48,32V49z"></path><path fill="#d22435" d="M9.28 37.36L24 45.86l7.99-4.6 8.02-4.62L40 45.86l-14.72 8.5c-.01 0-.01.01-.02.01-5.74 3.3-13.06 1.32-16.37-4.41-1.09-1.89-1.61-3.95-1.61-5.99 0-2.34.69-4.65 1.99-6.62C9.27 37.36 9.28 37.36 9.28 37.36zM54.73 26.65c5.73 3.32 7.7 10.65 4.38 16.39-2.22 3.85-6.25 6-10.4 6-.24 0-.47-.01-.71-.02 0-.01 0-.01 0-.02V32l-7.97-4.62-8.02-4.64 7.99-4.6 14.72 8.5C54.72 26.64 54.73 26.64 54.73 26.65z"></path></svg>