<svg width="896" height="1029" viewBox="0 0 896 1029" fill="none" xmlns="http://www.w3.org/2000/svg">
<path fill-rule="evenodd" clip-rule="evenodd" d="M228.475 530.968L142.862 616.582L213.207 686.928L298.67 601.154C328.67 621.559 362.557 635.574 398.218 642.3V763.259H497.779V642.3C533.438 635.576 567.327 621.56 597.327 601.154L682.941 686.768L753.287 616.422L667.525 530.971C687.93 500.96 701.945 467.073 708.671 431.411H829.629V331.851H708.671C701.947 296.192 687.93 262.302 667.525 232.302L753.138 146.689L682.793 76.3428L597.33 162.116C567.33 141.7 533.443 127.696 497.782 120.958V0H398.221V120.958C362.563 127.694 328.673 141.699 298.673 162.116L213.059 76.5028L142.713 146.849L228.475 232.299C208.071 262.299 194.055 296.186 187.329 331.848H66.3707V431.408H187.329C194.054 467.067 208.07 500.957 228.475 530.968ZM447.999 215.713C492.004 215.713 534.214 233.201 565.325 264.311C596.447 295.433 613.922 337.631 613.922 381.637C613.922 425.642 596.446 467.852 565.325 498.963C534.214 530.085 492.004 547.561 447.999 547.561C403.993 547.561 361.783 530.084 330.673 498.963C299.55 467.852 282.075 425.642 282.075 381.637C282.075 337.631 299.551 295.433 330.673 264.311C361.783 233.2 403.993 215.713 447.999 215.713ZM265.483 929.186H365.043V1028.75H265.483V929.186ZM630.517 929.186H530.957V1028.75H630.517V929.186ZM796.44 929.186H896V1028.75H796.44V929.186ZM99.5602 929.186H0V1028.75H99.5602V929.186Z" fill="#5BA79F"/>
</svg>
