<svg width="925" height="694" viewBox="0 0 925 694" fill="none" xmlns="http://www.w3.org/2000/svg">
<path d="M490.187 124.2C484.369 119.845 484.463 111.257 490.38 107.022L637.06 2.09548C644.33 -3.10238 654.565 1.96528 654.565 10.757V64.7263C719.502 64.7263 788.551 78.9343 841.685 125.013C896.059 172.153 924.097 244.138 924.097 339.28C924.097 504.186 793.946 596.16 667.95 601.493C604.83 604.165 539.257 585.644 488.897 541.509C437.657 496.608 407.042 429.457 407.042 344.656C407.042 286.27 386.777 253.432 361.693 231.453C335.734 208.704 299.547 197.213 260.906 198.849C183.375 202.13 110.013 256.021 110.013 353.796C110.013 428.536 131.477 466.989 155.486 487.809C180.737 509.705 218.95 520.992 269.527 520.992V467.606C269.527 458.705 279.986 453.669 287.225 459.086L433.905 568.872C439.728 573.226 439.629 581.815 433.717 586.05L287.037 690.976C279.772 696.174 269.532 691.106 269.532 682.315V628.345C204.595 628.345 135.559 614.137 82.412 568.064C28.0427 520.919 0 448.933 0 353.797C0 188.891 130.156 96.9174 256.147 91.584C319.267 88.9122 384.84 107.433 435.2 151.568C486.44 196.469 517.055 259.844 517.055 344.648C517.055 403.033 537.32 439.648 562.404 461.627C588.363 484.376 624.549 495.867 663.185 494.231C740.721 490.955 814.092 437.059 814.092 339.284C814.092 264.544 792.628 226.091 768.613 205.271C743.368 183.375 705.149 172.088 654.572 172.088V225.479C654.572 234.375 644.114 239.411 636.879 233.994L490.187 124.2Z" fill="#5956E9"/>
</svg>
