<svg width="16" height="10" viewBox="0 0 16 10" fill="none" xmlns="http://www.w3.org/2000/svg">
<path d="M11.682 7.22751C11.3147 7.22751 11.0158 6.92843 11.0158 6.56106C11.0158 6.1937 11.3147 5.89486 11.682 5.89486C12.0494 5.89486 12.3483 6.19364 12.3483 6.56106C12.3483 6.92849 12.0494 7.22751 11.682 7.22751ZM4.31798 7.22751C3.95061 7.22751 3.65178 6.92843 3.65178 6.56106C3.65178 6.1937 3.95055 5.89486 4.31798 5.89486C4.68535 5.89486 4.98418 6.19364 4.98418 6.56106C4.98418 6.92849 4.68541 7.22751 4.31798 7.22751ZM11.921 3.21421L13.2525 0.90806C13.2892 0.844415 13.2991 0.76883 13.2801 0.697889C13.2611 0.626948 13.2147 0.566445 13.1511 0.529656C13.0875 0.49302 13.0119 0.48312 12.941 0.502129C12.87 0.521137 12.8095 0.567502 12.7727 0.631055L11.4245 2.96635C10.3935 2.49588 9.23557 2.23375 8 2.23375C6.76443 2.23375 5.60654 2.49588 4.57553 2.96635L3.22728 0.631055C3.19048 0.567502 3.12998 0.521137 3.05904 0.502129C2.9881 0.48312 2.91252 0.49302 2.84888 0.529656C2.78527 0.566411 2.73887 0.626914 2.71985 0.69787C2.70084 0.768825 2.71077 0.844427 2.74748 0.90806L4.07902 3.21421C1.79257 4.45777 0.228774 6.77252 0 9.50726H16C15.771 6.77258 14.2073 4.45777 11.921 3.21415" fill="#3DDB85"/>
</svg>
