<svg width="20" height="15" viewBox="0 0 20 15" fill="none" xmlns="http://www.w3.org/2000/svg">
<path d="M9.8 7.92937C9.45 7.92937 9.1 7.85938 8.82 7.71937L0 4.35938V11.5694C0 13.1094 1.26 14.3694 2.8 14.3694H16.8C18.34 14.3694 19.6 13.1094 19.6 11.5694V4.35938L10.78 7.71937C10.5 7.85938 10.15 7.92937 9.8 7.92937Z" fill="white"/>
<path d="M10.29 6.45914L19.6 2.88914C19.46 1.48914 18.27 0.369141 16.8 0.369141H2.8C1.33 0.369141 0.21 1.48914 0 2.88914L9.24 6.45914C9.59 6.52914 10.01 6.52914 10.29 6.45914Z" fill="white"/>
</svg>
