<svg width="16" height="18" viewBox="0 0 16 18" fill="none" xmlns="http://www.w3.org/2000/svg">
<path d="M7.2781 0.372187C7.71529 0.121946 8.28472 0.120815 8.72153 0.372187C10.9191 1.61391 13.1173 2.85369 15.3145 4.09617C15.7277 4.32896 16.0042 4.78888 16 5.26506V12.7358C16.003 13.2317 15.6993 13.7026 15.2633 13.9301C13.073 15.165 10.8838 16.4013 8.69384 17.6362C8.24761 17.8914 7.66675 17.8717 7.23446 17.5957C6.5778 17.215 5.92001 16.8362 5.26329 16.4559C5.1291 16.3759 4.97782 16.3122 4.88306 16.1821C4.96683 16.0692 5.1166 16.0552 5.2383 16.0059C5.51241 15.9187 5.76415 15.7788 6.01597 15.643C6.07964 15.5994 6.15738 15.6161 6.21842 15.6551C6.77994 15.9771 7.3365 16.3084 7.89991 16.6273C8.0201 16.6967 8.1418 16.6046 8.24453 16.5473C10.3939 15.3325 12.5459 14.1223 14.6949 12.9071C14.7746 12.8688 14.8186 12.7843 14.8121 12.6971C14.8136 10.2327 14.8125 7.76779 14.8129 5.30336C14.822 5.2044 14.7647 5.1134 14.6752 5.0729C12.4925 3.84367 10.3109 2.61256 8.12855 1.38301C8.09074 1.35702 8.04595 1.34307 8.00006 1.343C7.95418 1.34294 7.90935 1.35675 7.87146 1.38264C5.68911 2.61256 3.5079 3.8448 1.32555 5.07397C1.23638 5.11454 1.17654 5.20402 1.18715 5.30336C1.18752 7.76779 1.18715 10.2327 1.18715 12.6975C1.18336 12.74 1.19271 12.7827 1.21393 12.8198C1.23515 12.8569 1.26722 12.8866 1.30583 12.9049C1.8882 13.2351 2.47132 13.563 3.05407 13.8921C3.38237 14.0689 3.78545 14.1739 4.14716 14.0385C4.46635 13.924 4.69009 13.5983 4.684 13.2594C4.68702 10.8093 4.68249 8.35889 4.68626 5.90922C4.67829 5.80046 4.78146 5.71059 4.88721 5.72083C5.16703 5.71895 5.44722 5.71706 5.72704 5.72158C5.84384 5.71895 5.92422 5.83606 5.90978 5.94564C5.90865 8.4112 5.91279 10.8768 5.90789 13.3424C5.90865 13.9995 5.63869 14.7145 5.03089 15.036C4.28211 15.4239 3.35662 15.3416 2.61689 14.9697C1.97649 14.65 1.36536 14.2728 0.736336 13.9304C0.299214 13.7041 -0.00302295 13.2313 5.40485e-05 12.7358V5.26506C-0.00453005 4.77902 0.282887 4.31075 0.70902 4.08135C2.89897 2.84547 5.08853 1.60864 7.2781 0.372187Z" fill="#8CC84B"/>
<path d="M9.18976 5.5473C10.1449 5.48582 11.1674 5.51088 12.0269 5.98141C12.6923 6.34198 13.0613 7.09874 13.073 7.83803C13.0544 7.93775 12.9502 7.99276 12.855 7.98592C12.5779 7.98554 12.3007 7.98968 12.0236 7.98403C11.906 7.98855 11.8377 7.88017 11.8229 7.77624C11.7433 7.42251 11.5504 7.07217 11.2174 6.90156C10.7063 6.64566 10.1137 6.65854 9.55643 6.66387C9.14957 6.68548 8.71207 6.72071 8.36739 6.95996C8.10276 7.14119 8.02239 7.50704 8.11683 7.80167C8.20588 8.01323 8.45009 8.08149 8.6499 8.14441C9.80095 8.44546 11.0207 8.4155 12.1498 8.81168C12.6172 8.97319 13.0745 9.28717 13.2345 9.77661C13.4438 10.4326 13.3521 11.2166 12.8854 11.7432C12.5069 12.1766 11.9557 12.4125 11.4059 12.5406C10.6745 12.7036 9.91549 12.7078 9.17274 12.6354C8.47433 12.5558 7.74753 12.3723 7.20836 11.8964C6.74731 11.4961 6.52213 10.8723 6.54448 10.2703C6.54982 10.1686 6.65105 10.0977 6.74845 10.1061C7.02751 10.1038 7.30658 10.1031 7.58564 10.1065C7.6971 10.0985 7.77974 10.1948 7.78546 10.2999C7.83695 10.6369 7.96361 10.9906 8.25749 11.1905C8.82467 11.5564 9.53633 11.5313 10.1858 11.5415C10.7238 11.5177 11.3278 11.5105 11.7668 11.1549C11.9985 10.952 12.0671 10.6127 12.0045 10.3207C11.9367 10.0743 11.6789 9.9594 11.4574 9.8843C10.3212 9.52486 9.08778 9.65528 7.96248 9.24881C7.50564 9.08736 7.06387 8.78211 6.88835 8.31277C6.64345 7.64851 6.75567 6.82689 7.27128 6.31806C7.77403 5.81192 8.49976 5.617 9.18976 5.54724V5.5473Z" fill="#8CC84B"/>
</svg>
