<svg width="16" height="16" viewBox="0 0 16 16" fill="none" xmlns="http://www.w3.org/2000/svg">
<path d="M7.94236 0.0415039C3.88055 0.0415039 4.13417 1.80294 4.13417 1.80294L4.13868 3.62784H8.01478V4.17573H2.59915C2.59915 4.17573 0 3.88095 0 7.97928C0 12.0777 2.2686 11.9324 2.2686 11.9324H3.62249V10.0305C3.62249 10.0305 3.5495 7.76194 5.85488 7.76194H9.69928C9.69928 7.76194 11.8592 7.79684 11.8592 5.67447V2.16525C11.8592 2.16525 12.1872 0.0415039 7.94236 0.0415039ZM5.80507 1.26871C5.89667 1.26863 5.98738 1.28661 6.07202 1.32163C6.15666 1.35664 6.23356 1.408 6.29833 1.47277C6.3631 1.53754 6.41446 1.61444 6.44947 1.69908C6.48448 1.78372 6.50246 1.87443 6.50238 1.96602C6.50246 2.05762 6.48448 2.14833 6.44947 2.23297C6.41446 2.31761 6.3631 2.39451 6.29833 2.45928C6.23356 2.52404 6.15666 2.5754 6.07202 2.61042C5.98738 2.64543 5.89667 2.66341 5.80507 2.66333C5.71348 2.66341 5.62277 2.64543 5.53813 2.61042C5.45349 2.5754 5.37659 2.52404 5.31182 2.45928C5.24705 2.39451 5.19569 2.31761 5.16068 2.23297C5.12566 2.14833 5.10768 2.05762 5.10777 1.96602C5.10768 1.87443 5.12566 1.78372 5.16068 1.69908C5.19569 1.61444 5.24705 1.53754 5.31182 1.47277C5.37659 1.408 5.45349 1.35664 5.53813 1.32163C5.62277 1.28661 5.71348 1.26863 5.80507 1.26871Z" fill="url(#paint0_linear_2501_2811)"/>
<path d="M8.05949 15.9584C12.1213 15.9584 11.8677 14.197 11.8677 14.197L11.8632 12.3721H7.987V11.8243H13.4026C13.4026 11.8243 16.0018 12.119 16.0018 8.02058C16.0018 3.92218 13.7332 4.06753 13.7332 4.06753H12.3793V5.96931C12.3793 5.96931 12.4523 8.23791 10.1469 8.23791H6.3025C6.3025 8.23791 4.14259 8.20302 4.14259 10.3255V13.8347C4.14259 13.8347 3.81462 15.9584 8.05942 15.9584H8.05949ZM10.1968 14.7313C10.1052 14.7314 10.0145 14.7134 9.92982 14.6784C9.84519 14.6434 9.76828 14.5921 9.70351 14.5273C9.63875 14.4625 9.58739 14.3856 9.55237 14.301C9.51736 14.2163 9.49938 14.1256 9.49946 14.034C9.49937 13.9424 9.51734 13.8517 9.55235 13.7671C9.58736 13.6824 9.63872 13.6055 9.70349 13.5407C9.76826 13.476 9.84517 13.4246 9.92981 13.3896C10.0145 13.3546 10.1052 13.3366 10.1968 13.3367C10.2884 13.3366 10.3791 13.3546 10.4637 13.3896C10.5484 13.4246 10.6253 13.4759 10.69 13.5407C10.7548 13.6055 10.8062 13.6824 10.8412 13.767C10.8762 13.8517 10.8942 13.9424 10.8941 14.034C10.8942 14.1256 10.8762 14.2163 10.8412 14.3009C10.8062 14.3856 10.7548 14.4625 10.69 14.5272C10.6253 14.592 10.5484 14.6434 10.4637 14.6784C10.3791 14.7134 10.2884 14.7314 10.1968 14.7313V14.7313Z" fill="url(#paint1_linear_2501_2811)"/>
<defs>
<linearGradient id="paint0_linear_2501_2811" x1="1.53759" y1="1.47312" x2="9.4667" y2="9.32313" gradientUnits="userSpaceOnUse">
<stop stop-color="#387EB8"/>
<stop offset="1" stop-color="#366994"/>
</linearGradient>
<linearGradient id="paint1_linear_2501_2811" x1="6.40627" y1="6.51405" x2="14.9212" y2="14.5635" gradientUnits="userSpaceOnUse">
<stop stop-color="#FFE052"/>
<stop offset="1" stop-color="#FFC331"/>
</linearGradient>
</defs>
</svg>
