<svg width="16" height="16" viewBox="0 0 16 16" fill="none" xmlns="http://www.w3.org/2000/svg">
<path d="M12.397 10.5539L3.26172 15.9784L15.0902 15.1757L16.0011 3.24854L12.3969 10.5538L12.397 10.5539Z" fill="url(#paint0_linear_2508_2858)"/>
<path d="M15.1101 15.1669L14.0935 8.1499L11.3242 11.8066L15.1101 15.1669V15.1669Z" fill="url(#paint1_linear_2508_2858)"/>
<path d="M15.1229 15.1672L7.67467 14.5825L3.30078 15.9627L15.1229 15.1672Z" fill="url(#paint2_linear_2508_2858)"/>
<path d="M3.31196 15.9643L5.17266 9.86865L1.07812 10.7441L3.3119 15.9642L3.31196 15.9643Z" fill="url(#paint3_linear_2508_2858)"/>
<path d="M11.3226 11.8271L9.61046 5.12109L4.71094 9.71382L11.3226 11.8273V11.8271Z" fill="url(#paint4_linear_2508_2858)"/>
<path d="M15.6126 5.21528L10.9811 1.43262L9.69141 5.60211L15.6126 5.21528Z" fill="url(#paint5_linear_2508_2858)"/>
<path d="M13.4464 0.0841161L10.7225 1.5895L9.00391 0.0639648L13.4464 0.0841789V0.0841161Z" fill="url(#paint6_linear_2508_2858)"/>
<path d="M0 12.7889L1.14109 10.7078L0.218023 8.22852L0 12.7889Z" fill="url(#paint7_linear_2508_2858)"/>
<path d="M0.15625 8.15028L1.08497 10.7846L5.12043 9.8792L9.7276 5.59741L11.0278 1.46753L8.98056 0.0219727L5.49991 1.32459C4.40327 2.34458 2.27533 4.36272 2.19862 4.40063C2.12266 4.43943 0.793432 6.95181 0.15625 8.15028Z" fill="white"/>
<path d="M3.41888 3.41774C5.7956 1.06123 8.85954 -0.331023 10.0353 0.855328C11.2105 2.04168 9.96428 4.92469 7.58756 7.28044C5.21084 9.63613 2.18489 11.1051 1.00983 9.91875C-0.165969 8.73321 1.04216 5.77349 3.41888 3.41774Z" fill="url(#paint8_linear_2508_2858)"/>
<path d="M3.3125 15.9622L5.15863 9.84717L11.2897 11.8168C9.07294 13.8956 6.60739 15.6529 3.3125 15.9622Z" fill="url(#paint9_linear_2508_2858)"/>
<path d="M9.73438 5.58529L11.3084 11.8198C13.1602 9.87274 14.8221 7.77952 15.6361 5.19043L9.73444 5.58529H9.73438Z" fill="url(#paint10_linear_2508_2858)"/>
<path d="M15.6206 5.22196C16.2506 3.32096 16.3959 0.593758 13.4256 0.0874023L10.9883 1.43364L15.6206 5.22196Z" fill="url(#paint11_linear_2508_2858)"/>
<path d="M0 12.7614C0.0872594 15.8989 2.35085 15.9457 3.3151 15.9731L1.08779 10.7715L0 12.7614Z" fill="#9E1209"/>
<path d="M9.74609 5.59517C11.169 6.46977 14.0369 8.22626 14.095 8.25853C14.1854 8.30938 15.3314 6.32602 15.5915 5.20508L9.74609 5.59517Z" fill="url(#paint12_radial_2508_2858)"/>
<path d="M5.15625 9.84717L7.62418 14.6086C9.08349 13.8172 10.2263 12.853 11.2728 11.8201L5.15625 9.84717Z" fill="url(#paint13_radial_2508_2858)"/>
<path d="M1.07623 10.7779L0.726562 14.9417C1.38634 15.843 2.29409 15.9214 3.24616 15.8511C2.55731 14.1366 1.18119 10.7085 1.07623 10.7779Z" fill="url(#paint14_linear_2508_2858)"/>
<path d="M10.9766 1.44391L15.8794 2.13194C15.6177 1.02318 14.8142 0.307657 13.4445 0.0839844L10.9766 1.44391Z" fill="url(#paint15_linear_2508_2858)"/>
<defs>
<linearGradient id="paint0_linear_2508_2858" x1="14.0584" y1="17.4295" x2="10.6868" y2="11.4678" gradientUnits="userSpaceOnUse">
<stop stop-color="#FB7655"/>
<stop offset="0.41" stop-color="#E42B1E"/>
<stop offset="0.99" stop-color="#990000"/>
<stop offset="1" stop-color="#990000"/>
</linearGradient>
<linearGradient id="paint1_linear_2508_2858" x1="15.7405" y1="12.4226" x2="11.0009" y2="11.4967" gradientUnits="userSpaceOnUse">
<stop stop-color="#871101"/>
<stop offset="0.99" stop-color="#911209"/>
<stop offset="1" stop-color="#911209"/>
</linearGradient>
<linearGradient id="paint2_linear_2508_2858" x1="12.2588" y1="17.6097" x2="12.1978" y2="14.6035" gradientUnits="userSpaceOnUse">
<stop stop-color="#871101"/>
<stop offset="0.99" stop-color="#911209"/>
<stop offset="1" stop-color="#911209"/>
</linearGradient>
<linearGradient id="paint3_linear_2508_2858" x1="3.12588" y1="10.3096" x2="4.5351" y2="14.4418" gradientUnits="userSpaceOnUse">
<stop stop-color="white"/>
<stop offset="0.23" stop-color="#E57252"/>
<stop offset="0.46" stop-color="#DE3B20"/>
<stop offset="0.99" stop-color="#A60003"/>
<stop offset="1" stop-color="#A60003"/>
</linearGradient>
<linearGradient id="paint4_linear_2508_2858" x1="7.76379" y1="6.21742" x2="8.01939" y2="10.69" gradientUnits="userSpaceOnUse">
<stop stop-color="white"/>
<stop offset="0.23" stop-color="#E4714E"/>
<stop offset="0.56" stop-color="#BE1A0D"/>
<stop offset="0.99" stop-color="#A80D00"/>
<stop offset="1" stop-color="#A80D00"/>
</linearGradient>
<linearGradient id="paint5_linear_2508_2858" x1="11.8802" y1="2.08281" x2="12.2539" y2="5.33107" gradientUnits="userSpaceOnUse">
<stop stop-color="white"/>
<stop offset="0.18" stop-color="#E46342"/>
<stop offset="0.4" stop-color="#C82410"/>
<stop offset="0.99" stop-color="#A80D00"/>
<stop offset="1" stop-color="#A80D00"/>
</linearGradient>
<linearGradient id="paint6_linear_2508_2858" x1="9.60849" y1="0.954052" x2="10.1355" y2="-1.28041" gradientUnits="userSpaceOnUse">
<stop stop-color="white"/>
<stop offset="0.54" stop-color="#C81F11"/>
<stop offset="0.99" stop-color="#BF0905"/>
<stop offset="1" stop-color="#BF0905"/>
</linearGradient>
<linearGradient id="paint7_linear_2508_2858" x1="0.315214" y1="9.19236" x2="1.6933" y2="10.0562" gradientUnits="userSpaceOnUse">
<stop stop-color="white"/>
<stop offset="0.31" stop-color="#DE4024"/>
<stop offset="0.99" stop-color="#BF190B"/>
<stop offset="1" stop-color="#BF190B"/>
</linearGradient>
<linearGradient id="paint8_linear_2508_2858" x1="-1.49732" y1="12.5478" x2="10.8866" y2="-0.222626" gradientUnits="userSpaceOnUse">
<stop stop-color="#BD0012"/>
<stop offset="0.07" stop-color="white"/>
<stop offset="0.17" stop-color="white"/>
<stop offset="0.27" stop-color="#C82F1C"/>
<stop offset="0.33" stop-color="#820C01"/>
<stop offset="0.46" stop-color="#A31601"/>
<stop offset="0.72" stop-color="#B31301"/>
<stop offset="0.99" stop-color="#E82609"/>
<stop offset="1" stop-color="#E82609"/>
</linearGradient>
<linearGradient id="paint9_linear_2508_2858" x1="8.00246" y1="13.8345" x2="4.4979" y2="12.3625" gradientUnits="userSpaceOnUse">
<stop stop-color="#8C0C01"/>
<stop offset="0.54" stop-color="#990C00"/>
<stop offset="0.99" stop-color="#A80D0E"/>
<stop offset="1" stop-color="#A80D0E"/>
</linearGradient>
<linearGradient id="paint10_linear_2508_2858" x1="14.4155" y1="9.35064" x2="10.8056" y2="6.78649" gradientUnits="userSpaceOnUse">
<stop stop-color="#7E110B"/>
<stop offset="0.99" stop-color="#9E0C00"/>
<stop offset="1" stop-color="#9E0C00"/>
</linearGradient>
<linearGradient id="paint11_linear_2508_2858" x1="15.6355" y1="3.89324" x2="13.9378" y2="2.16991" gradientUnits="userSpaceOnUse">
<stop stop-color="#79130D"/>
<stop offset="0.99" stop-color="#9E120B"/>
<stop offset="1" stop-color="#9E120B"/>
</linearGradient>
<radialGradient id="paint12_radial_2508_2858" cx="0" cy="0" r="1" gradientUnits="userSpaceOnUse" gradientTransform="translate(11.6167 6.43326) scale(4.0668 2.12504)">
<stop stop-color="#A80D00"/>
<stop offset="0.99" stop-color="#7E0E08"/>
<stop offset="1" stop-color="#7E0E08"/>
</radialGradient>
<radialGradient id="paint13_radial_2508_2858" cx="0" cy="0" r="1" gradientUnits="userSpaceOnUse" gradientTransform="translate(5.98498 11.7927) scale(5.40619 4.20847)">
<stop stop-color="#A30C00"/>
<stop offset="0.99" stop-color="#800E08"/>
<stop offset="1" stop-color="#800E08"/>
</radialGradient>
<linearGradient id="paint14_linear_2508_2858" x1="2.1519" y1="15.9582" x2="-0.891816" y2="13.4317" gradientUnits="userSpaceOnUse">
<stop stop-color="#8B2114"/>
<stop offset="0.43" stop-color="#9E100A"/>
<stop offset="0.99" stop-color="#B3100C"/>
<stop offset="1" stop-color="#B3100C"/>
</linearGradient>
<linearGradient id="paint15_linear_2508_2858" x1="12.4901" y1="0.813037" x2="13.354" y2="2.99852" gradientUnits="userSpaceOnUse">
<stop stop-color="#B31000"/>
<stop offset="0.44" stop-color="#910F08"/>
<stop offset="0.99" stop-color="#791C12"/>
<stop offset="1" stop-color="#791C12"/>
</linearGradient>
</defs>
</svg>
